<?xml version="1.0"?>
<svg version="1.1" xmlns="http://www.w3.org/2000/svg" width="400" height="200" style="border: dashed 2px #aaa"><path fill="#000000" d="M15.423828125,122.66796875q-1.435546875,0-2.501953125-0.30078125l0-3.52734375q1.09375,0.2734375,1.99609375,0.2734375q1.39453125,0,1.99609375-0.8681640625t0.6015625-2.7138671875l0-18.73046875l4.23828125,0l0,18.703125q0,3.5-1.599609375,5.33203125t-4.73046875,1.83203125z M39.20974609375,116.7890625l-0.560546875-1.955078125l-0.21875,0q-0.669921875,1.06640625-1.900390625,1.6474609375t-2.802734375,0.5810546875q-2.693359375,0-4.060546875-1.4423828125t-1.3671875-4.1494140625l0-9.966796875l4.169921875,0l0,8.927734375q0,1.654296875,0.587890625,2.4814453125t1.873046875,0.8271484375q1.75,0,2.529296875-1.1689453125t0.779296875-3.8759765625l0-7.19140625l4.169921875,0l0,15.28515625l-3.19921875,0z M59.3726171875,112.25q0,2.3515625-1.6337890625,3.58203125t-4.8876953125,1.23046875q-1.66796875,0-2.84375-0.2255859375t-2.201171875-0.6630859375l0-3.4453125q1.162109375,0.546875,2.6181640625,0.916015625t2.5634765625,0.369140625q2.26953125,0,2.26953125-1.3125q0-0.4921875-0.30078125-0.7998046875t-1.0390625-0.697265625t-1.96875-0.9091796875q-1.763671875-0.73828125-2.5908203125-1.3671875t-1.203125-1.4423828125t-0.3759765625-2.0029296875q0-2.037109375,1.5791015625-3.1513671875t4.4775390625-1.1142578125q2.76171875,0,5.373046875,1.203125l-1.2578125,3.0078125q-1.1484375-0.4921875-2.146484375-0.806640625t-2.037109375-0.314453125q-1.845703125,0-1.845703125,0.998046875q0,0.560546875,0.5947265625,0.970703125t2.6044921875,1.216796875q1.791015625,0.724609375,2.625,1.353515625t1.23046875,1.44921875t0.396484375,1.955078125z M70.99056640625,113.740234375q1.09375,0,2.625-0.478515625l0,3.103515625q-1.55859375,0.697265625-3.828125,0.697265625q-2.501953125,0-3.6435546875-1.2646484375t-1.1416015625-3.7939453125l0-7.369140625l-1.99609375,0l0-1.763671875l2.296875-1.39453125l1.203125-3.2265625l2.666015625,0l0,3.25390625l4.279296875,0l0,3.130859375l-4.279296875,0l0,7.369140625q0,0.888671875,0.4990234375,1.3125t1.3193359375,0.423828125z M78.958125,116.7890625l0-19.98828125l4.23828125,0l0,19.98828125l-4.23828125,0z M99.53115234375,116.7890625l-0.806640625-2.078125l-0.109375,0q-1.052734375,1.326171875-2.1669921875,1.8388671875t-2.9052734375,0.5126953125q-2.201171875,0-3.4658203125-1.2578125t-1.2646484375-3.58203125q0-2.43359375,1.7021484375-3.5888671875t5.1337890625-1.2783203125l2.65234375-0.08203125l0-0.669921875q0-2.32421875-2.37890625-2.32421875q-1.83203125,0-4.306640625,1.107421875l-1.380859375-2.81640625q2.638671875-1.380859375,5.8515625-1.380859375q3.076171875,0,4.716796875,1.33984375t1.640625,4.07421875l0,10.185546875l-2.912109375,0z M98.30068359375,109.70703125l-1.61328125,0.0546875q-1.818359375,0.0546875-2.70703125,0.65625t-0.888671875,1.83203125q0,1.763671875,2.0234375,1.763671875q1.44921875,0,2.3173828125-0.833984375t0.8681640625-2.21484375l0-1.2578125z M122.7701953125,116.7890625l-4.169921875,0l0-8.927734375q0-1.654296875-0.587890625-2.4814453125t-1.873046875-0.8271484375q-1.75,0-2.529296875,1.1689453125t-0.779296875,3.8759765625l0,7.19140625l-4.169921875,0l0-15.28515625l3.185546875,0l0.560546875,1.955078125l0.232421875,0q0.697265625-1.107421875,1.9208984375-1.6748046875t2.7822265625-0.5673828125q2.666015625,0,4.046875,1.4423828125t1.380859375,4.1630859375l0,9.966796875z M143.09712890625,116.7890625l-4.169921875,0l0-8.927734375q0-1.654296875-0.587890625-2.4814453125t-1.873046875-0.8271484375q-1.75,0-2.529296875,1.1689453125t-0.779296875,3.8759765625l0,7.19140625l-4.169921875,0l0-15.28515625l3.185546875,0l0.560546875,1.955078125l0.232421875,0q0.697265625-1.107421875,1.9208984375-1.6748046875t2.7822265625-0.5673828125q2.666015625,0,4.046875,1.4423828125t1.380859375,4.1630859375l0,9.966796875z"/><path fill="#" d=""/></svg>
